<svg id="Camada_1" data-name="Camada 1" xmlns="http://www.w3.org/2000/svg" viewBox="0 0 3000 846.56">
  <defs>
    <style>
      .cls-1 {
        fill: #4f39f6;
      }
    </style>
  </defs>
  <path class="cls-1" d="M844.04,170.92h-81.83c-15.62,0-30.3,7.47-39.5,20.1l-250.14,343.63h-146.31l232.42-319.29c13.46-18.49.25-44.44-22.62-44.44h-82.61c-15.13,0-29.35,7.24-38.25,19.47l-218.25,299.83c-13.46,18.49-.25,44.44,22.62,44.44h106.69l143.04,143.04c17.62,17.62,47.76,5.14,47.76-19.78v-123.27h117.17l143.04,143.04c17.62,17.62,47.75,5.14,47.75-19.78v-95.29c0-15.45-12.52-27.97-27.97-27.97h-162.81l232.42-319.29c13.46-18.49.25-44.44-22.62-44.44Z"/>
  <g>
    <path d="M1118.57,570.1c-26.97,0-47.79-7.68-62.46-23.04-14.68-15.36-22.02-33.23-22.02-61.22v-145.4h-49.66v-45.57h10.24c12.29,0,21.93-3.75,28.93-11.26,6.99-7.51,10.5-17.41,10.5-29.7v-22.53h48.13v63.49h61.95v45.57h-61.95v143.87c0,9.21,1.45,13.44,4.35,20.26,2.89,6.83,7.76,12.21,14.59,16.13,6.82,3.93,15.87,5.89,27.14,5.89,2.38,0,5.38-.17,8.96-.51,3.58-.33,6.91-.68,9.98-1.02v41.99c-4.44,1.02-9.39,1.79-14.85,2.3-5.46.51-10.07.77-13.82.77Z"/>
    <path d="M1179.85,568.44v-273.11h51.75v273.11h-51.75ZM1231.6,413.2l-19.55-9.2c0-34.88,8.05-62.67,24.15-83.37,16.1-20.7,39.29-31.05,69.57-31.05,13.8,0,26.25,2.4,37.37,7.19,11.11,4.79,21.46,12.74,31.05,23.86l-33.92,35.07c-5.75-6.13-12.07-10.54-18.97-13.22-6.9-2.68-14.95-4.03-24.15-4.03-19.17,0-34.88,6.13-47.15,18.4-12.27,12.27-18.4,31.05-18.4,56.35Z"/>
    <path d="M1502.73,574.19c-25.3,0-48.01-6.22-68.13-18.69-20.12-12.45-36.03-29.41-47.72-50.88-11.7-21.46-17.54-45.61-17.54-72.45s5.84-50.98,17.54-72.45c11.69-21.46,27.6-38.52,47.72-51.17,20.12-12.65,42.84-18.98,68.13-18.98,20.7,0,39.19,4.31,55.49,12.94,16.29,8.62,29.41,20.51,39.39,35.65,9.96,15.14,15.52,32.68,16.67,52.61v82.22c-1.15,19.55-6.61,36.99-16.39,52.32-9.77,15.33-22.91,27.31-39.39,35.94-16.49,8.62-35.07,12.93-55.77,12.93ZM1511.35,525.32c25.68,0,46.38-8.72,62.1-26.16,15.71-17.44,23.57-39.76,23.57-66.98,0-18.4-3.65-34.69-10.92-48.87-7.29-14.18-17.35-25.2-30.19-33.06-12.85-7.85-27.88-11.79-45.13-11.79s-32.49,4.03-45.71,12.07c-13.22,8.05-23.57,19.08-31.05,33.06-7.47,14-11.21,30-11.21,48.01s3.74,34.6,11.21,48.58c7.48,14,17.91,25.01,31.34,33.06,13.41,8.05,28.75,12.08,46,12.08ZM1593.57,568.44v-73.6l9.78-66.69-9.78-66.12v-66.7h52.32v273.11h-52.32Z"/>
    <path d="M1823.16,574.19c-26.83,0-51.08-6.32-72.73-18.97-21.66-12.65-38.72-29.8-51.17-51.46-12.46-21.65-18.69-45.71-18.69-72.16s6.23-50.98,18.69-72.45c12.45-21.46,29.51-38.42,51.17-50.89,21.65-12.45,45.9-18.69,72.73-18.69,21.08,0,40.63,3.94,58.65,11.79,18.01,7.86,33.54,19.26,46.57,34.21l-34.5,34.5c-8.44-9.96-18.78-17.54-31.05-22.71-12.27-5.18-25.5-7.76-39.67-7.76-17.25,0-32.58,3.93-46,11.79-13.42,7.86-23.96,18.69-31.62,32.49-7.67,13.8-11.5,29.71-11.5,47.72s3.83,33.92,11.5,47.72c7.66,13.8,18.2,24.72,31.62,32.77,13.41,8.05,28.75,12.08,46,12.08,14.56,0,27.89-2.59,39.96-7.76,12.07-5.18,22.51-12.74,31.34-22.71l33.92,34.5c-12.65,14.57-28.08,25.87-46.29,33.92-18.21,8.05-37.86,12.07-58.94,12.07Z"/>
    <path d="M1964.35,568.44V157.91h51.75v410.53h-51.75ZM2139.14,568.44l-127.64-139.72,125.92-133.4h63.25l-140.87,147.2,2.3-29.9,143.74,155.82h-66.7Z"/>
    <path d="M2360.72,573.61c-24.15,0-45.81-5.07-64.97-15.2-19.17-10.13-34.12-24.38-44.85-42.74-10.74-18.35-16.1-39.58-16.1-63.67v-156.82h75.9v155.1c0,11.47,1.91,21.33,5.75,29.54,3.83,8.23,9.58,14.44,17.25,18.64,7.66,4.21,16.67,6.31,27.02,6.31,15.71,0,27.98-4.78,36.8-14.34,8.82-9.55,13.23-22.95,13.23-40.16v-155.1h75.32v156.82c0,24.09-5.37,45.32-16.1,63.67-10.74,18.36-25.59,32.61-44.56,42.74-18.98,10.13-40.54,15.2-64.69,15.2Z"/>
    <path d="M2519.24,685.16v-389.86h75.32v68.45l-12.65,67.27,12.08,67.85v186.29h-74.75ZM2673.34,574.19c-19.94,0-37.95-4.03-54.05-12.07-16.1-8.05-29.04-19.26-38.81-33.64-9.77-14.38-15.05-30.56-15.81-48.58v-98.89c.76-18.4,6.04-34.79,15.81-49.16,9.77-14.37,22.71-25.77,38.81-34.21,16.1-8.43,34.11-12.65,54.05-12.65,25.68,0,48.77,6.32,69.28,18.97,20.5,12.65,36.51,29.9,48.01,51.75,11.5,21.85,17.25,46.57,17.25,74.17s-5.85,51.75-17.54,73.6c-11.7,21.85-27.7,39.1-48.01,51.75-20.32,12.65-43.32,18.97-69,18.97ZM2660.68,504.62c13.8,0,25.88-3.25,36.23-9.78,10.35-6.51,18.49-15.42,24.43-26.73,5.94-11.3,8.91-24.24,8.91-38.81s-2.97-27.4-8.91-38.52c-5.95-11.11-14.09-19.93-24.43-26.45-10.35-6.51-22.62-9.77-36.8-9.77-13.42,0-25.4,3.26-35.94,9.77-10.55,6.52-18.79,15.34-24.72,26.45-5.95,11.12-8.91,23.96-8.91,38.52s2.77,27.51,8.34,38.81c5.55,11.31,13.8,20.22,24.72,26.73,10.92,6.52,23.28,9.78,37.08,9.78Z"/>
  </g>
</svg>