<svg id="Camada_1" data-name="Camada 1" xmlns="http://www.w3.org/2000/svg" viewBox="0 0 3000 846.56">
  <defs>
    <style>
      .cls-1 {
        fill: #4f39f6;
      }

      .cls-2 {
        fill: #fff;
      }
    </style>
  </defs>
  <path class="cls-1" d="M846.53,171.79h-81.88c-15.63,0-30.32,7.48-39.52,20.12l-250.29,343.84h-146.39l232.56-319.48c13.47-18.5.25-44.46-22.63-44.46h-82.66c-15.14,0-29.37,7.24-38.28,19.48l-218.39,300.01c-13.47,18.5-.25,44.46,22.63,44.46h106.75l143.13,143.13c17.63,17.63,47.78,5.14,47.78-19.79v-123.34h117.24l143.13,143.13c17.63,17.63,47.78,5.14,47.78-19.79v-95.35c0-15.46-12.53-27.99-27.99-27.99h-162.91l232.56-319.48c13.47-18.5.25-44.46-22.63-44.46Z"/>
  <g>
    <path class="cls-2" d="M1121.22,571.22c-26.98,0-47.82-7.68-62.5-23.05-14.69-15.37-22.03-33.25-22.03-61.26v-145.49h-49.69v-45.6h10.24c12.3,0,21.94-3.75,28.95-11.27,7-7.51,10.5-17.42,10.5-29.72v-22.54h48.16v63.52h61.99v45.6h-61.99v143.96c0,9.22,1.45,13.44,4.35,20.27,2.9,6.83,7.76,12.21,14.6,16.14,6.83,3.93,15.88,5.89,27.15,5.89,2.39,0,5.38-.17,8.96-.51,3.59-.33,6.92-.68,9.99-1.03v42.01c-4.44,1.03-9.4,1.79-14.86,2.3-5.47.51-10.08.77-13.83.77Z"/>
    <path class="cls-2" d="M1182.55,569.55v-273.28h51.78v273.28h-51.78ZM1234.33,414.21l-19.56-9.2c0-34.9,8.05-62.71,24.16-83.42,16.11-20.71,39.31-31.07,69.62-31.07,13.81,0,26.27,2.4,37.4,7.19,11.12,4.8,21.48,12.75,31.07,23.87l-33.94,35.1c-5.75-6.13-12.08-10.55-18.99-13.23-6.9-2.68-14.96-4.03-24.16-4.03-19.18,0-34.91,6.14-47.18,18.41-12.28,12.28-18.41,31.07-18.41,56.38Z"/>
    <path class="cls-2" d="M1505.62,575.3c-25.31,0-48.04-6.23-68.18-18.7-20.14-12.46-36.06-29.43-47.75-50.91-11.7-21.48-17.55-45.64-17.55-72.49s5.84-51.01,17.55-72.49c11.7-21.48,27.62-38.55,47.75-51.2,20.14-12.66,42.86-18.99,68.18-18.99,20.71,0,39.21,4.31,55.52,12.95,16.3,8.63,29.43,20.52,39.41,35.67,9.97,15.15,15.53,32.7,16.68,52.64v82.27c-1.15,19.56-6.62,37.02-16.4,52.36-9.78,15.34-22.92,27.33-39.41,35.96-16.5,8.63-35.1,12.94-55.81,12.94ZM1514.25,526.4c25.69,0,46.4-8.72,62.14-26.18,15.72-17.45,23.59-39.79,23.59-67.03,0-18.41-3.65-34.71-10.93-48.9-7.29-14.19-17.36-25.22-30.21-33.08-12.85-7.86-27.9-11.79-45.16-11.79s-32.51,4.03-45.74,12.08c-13.23,8.06-23.59,19.09-31.07,33.08-7.48,14.01-11.22,30.02-11.22,48.04s3.74,34.62,11.22,48.61c7.48,14,17.92,25.03,31.36,33.08,13.42,8.06,28.77,12.08,46.03,12.08ZM1596.52,569.55v-73.64l9.78-66.74-9.78-66.16v-66.74h52.36v273.28h-52.36Z"/>
    <path class="cls-2" d="M1826.25,575.3c-26.85,0-51.11-6.33-72.78-18.98-21.67-12.66-38.74-29.82-51.21-51.49-12.47-21.66-18.7-45.74-18.7-72.2s6.23-51.01,18.7-72.49c12.46-21.48,29.53-38.45,51.21-50.92,21.66-12.46,45.93-18.7,72.78-18.7,21.09,0,40.65,3.94,58.68,11.79,18.02,7.87,33.56,19.27,46.6,34.23l-34.52,34.52c-8.44-9.97-18.8-17.55-31.07-22.73-12.28-5.18-25.51-7.77-39.7-7.77-17.26,0-32.6,3.94-46.03,11.79-13.43,7.87-23.97,18.7-31.64,32.51-7.68,13.81-11.51,29.73-11.51,47.75s3.83,33.94,11.51,47.75c7.67,13.81,18.21,24.74,31.64,32.79,13.42,8.06,28.77,12.08,46.03,12.08,14.57,0,27.9-2.59,39.99-7.77,12.08-5.18,22.53-12.75,31.36-22.73l33.94,34.52c-12.66,14.58-28.1,25.89-46.31,33.94-18.22,8.05-37.88,12.08-58.97,12.08Z"/>
    <path class="cls-2" d="M1967.51,569.55V158.77h51.78v410.78h-51.78ZM2142.41,569.55l-127.72-139.8,126-133.48h63.28l-140.95,147.29,2.3-29.92,143.83,155.91h-66.74Z"/>
    <path class="cls-2" d="M2364.13,574.73c-24.16,0-45.84-5.08-65.01-15.21-19.18-10.13-34.14-24.39-44.88-42.76-10.74-18.36-16.11-39.6-16.11-63.71v-156.92h75.94v155.19c0,11.48,1.91,21.34,5.75,29.56,3.83,8.23,9.58,14.45,17.26,18.65,7.67,4.21,16.68,6.32,27.04,6.32,15.72,0,27.99-4.78,36.82-14.35,8.82-9.56,13.24-22.96,13.24-40.18v-155.19h75.37v156.92c0,24.11-5.38,45.35-16.11,63.71-10.74,18.37-25.6,32.63-44.59,42.76-18.99,10.14-40.56,15.21-64.73,15.21Z"/>
    <path class="cls-2" d="M2522.75,686.34v-390.1h75.37v68.5l-12.66,67.31,12.08,67.89v186.41h-74.79ZM2676.93,575.3c-19.95,0-37.97-4.03-54.08-12.08-16.11-8.06-29.05-19.27-38.83-33.66-9.78-14.38-15.06-30.58-15.82-48.61v-98.95c.77-18.41,6.04-34.81,15.82-49.19,9.78-14.38,22.73-25.79,38.83-34.23,16.11-8.43,34.13-12.66,54.08-12.66,25.69,0,48.8,6.33,69.33,18.98,20.51,12.66,36.53,29.92,48.04,51.78,11.5,21.86,17.26,46.6,17.26,74.22s-5.85,51.78-17.55,73.64c-11.7,21.86-27.71,39.12-48.04,51.78-20.34,12.66-43.35,18.98-69.04,18.98ZM2664.27,505.69c13.81,0,25.89-3.26,36.25-9.78,10.36-6.52,18.5-15.43,24.45-26.75,5.94-11.31,8.92-24.25,8.92-38.84s-2.98-27.41-8.92-38.54c-5.95-11.12-14.09-19.94-24.45-26.47-10.36-6.52-22.64-9.78-36.82-9.78-13.43,0-25.42,3.26-35.96,9.78-10.56,6.53-18.8,15.35-24.74,26.47-5.95,11.13-8.92,23.97-8.92,38.54s2.78,27.53,8.34,38.84c5.56,11.32,13.81,20.23,24.74,26.75,10.93,6.53,23.3,9.78,37.11,9.78Z"/>
  </g>
</svg>