<svg id="Camada_1" xmlns="http://www.w3.org/2000/svg" version="1.1" viewBox="0 0 1000 1000">
  
  <defs>
    <style>
      .st0 {
        fill: #fff;
      }

      .st1 {
        fill: #4f39f6;
      }
    </style>
  </defs>
  <rect class="st1" x="0" width="1000" height="1000" rx="154.23" ry="154.23"/>
  <path class="st0" d="M874.95,190.76h-98.26c-18.76,0-36.39,8.97-47.43,24.14l-300.38,412.65h-175.69l279.1-383.42c16.16-22.2.3-53.36-27.16-53.36h-99.21c-18.17,0-35.24,8.69-45.94,23.38L97.9,574.2c-16.16,22.2-.3,53.36,27.16,53.36h128.12l171.77,171.77c21.17,21.17,57.35,6.17,57.35-23.75v-148.03h140.7l171.77,171.77c21.17,21.17,57.34,6.17,57.34-23.75v-114.43c0-18.55-15.04-33.6-33.6-33.6h-195.51l279.1-383.42c16.16-22.2.3-53.36-27.16-53.36h0Z"/>
</svg>